# xmcd
# Track frame offsets:
# 182
# 17977
# 38737
# 65757
# 82485
# 101602
# 115562
# 142385
# 161392
# 176532
# 194342
# 209830
#
# Disc length: 2961 seconds
# Revision: 0
# Processed by: cddbd v1.4PL0 Copyright (c) Steve Scherf et al.
# Submitted via: VisiTrax 2.9.5.180 - For more info visit www.synapsa.com
#
DISCID=b50b8f0c
DTITLE=Flavium - Slowburn
DYEAR=1992
DGENRE=Blues
TTITLE0=S.E.X.
TTITLE1=Stay With Me
TTITLE2=Bird On A Wire
TTITLE3=All Your Love
TTITLE4=Slowburn
TTITLE5=I Ain't Calling That Bad
TTITLE6=Southside Of The City
TTITLE7=Don't You Stand
TTITLE8=My Prize
TTITLE9=Bleeding Heart
TTITLE10=Can't Stop Love (For Chris)
TTITLE11=Why Do You Hurt Me
EXTD=
EXTT0=
EXTT1=
EXTT2=
EXTT3=
EXTT4=
EXTT5=
EXTT6=
EXTT7=
EXTT8=
EXTT9=
EXTT10=
EXTT11=
PLAYORDER=
